<svg xmlns="http://www.w3.org/2000/svg" width="99" height="44">
  <g fill="none" fill-rule="evenodd">
    <path fill="#FFF" d="M31.05 25.73a2.155 2.155 0 0 0-.316.097c-.146.032-.251.057-.316.073-.811.243-1.314.405-1.509.487-2.125.86-3.342 1.338-3.65 1.435.032.179-.041.309-.22.39-.194.081-.332.032-.413-.146a.381.381 0 0 0-.073-.098c-.19-.146-.09-.197-.292-.292-.065-.032-.86-.17-2.386-.413-.308-.033-.795-.146-1.46-.341-.484-.095-.462-.077-.754-.17-.6-.146-1.12-.203-1.558-.17-.178.015-.292-.066-.34-.244a6.397 6.397 0 0 0-.633-1.533c-.065-.033-.098-.09-.098-.17-.276-.439-.722-1.047-1.338-1.826.47 1.606.713 2.434.73 2.482.097.341.251.771.462 1.29.26.633.43 1.055.511 1.266.049.162.122.438.22.827.04.106.048.13.048.146.049.017.105.04.17.073.26.114.284.284.073.511a.54.54 0 0 1-.073.17c-.21.342-.43.317-.657-.072-.292.032-.543.089-.803.17-.633.195-1.266.446-1.898.755-.714.34-1.29.665-1.728.973-.309.227-.511.398-.609.511.016.114-.024.211-.121.292-.033.146-.138.227-.317.244-.162.016-.276-.04-.34-.17-.114-.098-.163-.204-.147-.317a4.599 4.599 0 0 0-.608-.463c-.13.13-.227.114-.292-.048a.869.869 0 0 1-.073-.22c-.162-.097-.722-.437-1.68-1.021-.113-.017-.186-.057-.219-.122a10.083 10.083 0 0 1-.803-.511c-.113.08-.243.08-.39 0-.145-.081-.194-.203-.145-.365 0-.114.008-.163.024-.195.016-.081.073-.154.17-.219-.34-1.817-1.273-5.322-2.798-10.514-1.574-5.354-2.426-8.526-2.556-9.516a.262.262 0 0 1-.048-.146c-.714 0-1.234-.536-1.558-1.607-.292-.957-.316-1.776-.073-2.458.081-.243.251-.308.511-.194.097-.049 1.111-.228 3.042-.536.584-.097 1.371-.332 2.361-.706 1.103-.389 1.89-.64 2.36-.754 1.315-.292 2.58.024 3.798.95.616.47 1.103.965 1.46 1.484.487.681.73 1.233.73 1.655 0 .616-.114 1.135-.34 1.557a.216.216 0 0 1 .024.098c-.017-.017 1.444 1.647 4.38 4.989-.08-.276-.308-1.387-.681-3.334-.34-1.85-.836-3.075-1.485-3.675a.311.311 0 0 1-.121-.195c-.244-.081-.455-.284-.633-.609-.065-.113-.203-.34-.414-.681a7.005 7.005 0 0 1-.39-.706c-.324-.697-.364-1.257-.121-1.68.097-.145.243-.21.438-.194a.366.366 0 0 1 .292-.219c.86-.113 2.134-.43 3.821-.949 1.769-.535 2.905-.82 3.408-.852.86-.065 2.66.633 5.403 2.093.13.065.186.162.17.292-.065.73-.097 1.055-.097.974-.082.714-.26 1.217-.536 1.509.276.949.617 2.458 1.022 4.55.13.682.333 1.534.609 2.556l.706 2.532c.324 1.281.657 3.05.997 5.305.39 2.596.682 4.373.877 5.33.032.081.04.154.024.22a.516.516 0 0 1-.195.218.432.432 0 0 1-.194.049l-.341.097zm26.943 2.652c.26.195.235.52-.073.974-.26.39-.552.811-.876 1.265-.795 1.071-1.396 1.736-1.801 1.996a.264.264 0 0 1-.049.097c-.065.114-.178.163-.34.146-.276.292-1.08.268-2.41-.073a10.455 10.455 0 0 0-1.558-.267 774.744 774.744 0 0 0-2.434-.146c-.13-.017-.202-.106-.219-.268-.178-.99-.284-1.655-.316-1.996-.081-.519-.097-.892-.049-1.12-.13-.016-.275-.032-.438-.048-.065.438-.519 1.184-1.363 2.24-.405.502-.819.948-1.24 1.338-.423.39-.763.608-1.023.657a.35.35 0 0 1-.365-.122.216.216 0 0 1-.097.024c-1.12 0-2.288-.097-3.505-.292-1.542-.227-2.515-.616-2.92-1.168-.05-.065-.066-.13-.05-.195-.21-.032-.316-.146-.316-.34 0-.13.016-.252.049-.365.016-.065.032-.122.049-.17.146-.504.405-1.12.778-1.85a54.854 54.854 0 0 0 1.266-2.629 154.07 154.07 0 0 0 2.531-5.841 57.606 57.606 0 0 1 1.168-2.653c-.032-.146.025-.26.17-.34-.097-.293-.097-.771 0-1.437.114-.697.285-1.346.512-1.947.243-.649.487-1.095.73-1.338.081-.081.243-.179.487-.292.21-.114.357-.22.438-.317.357-.405.584-.64.681-.705.422-.211.86-.309 1.314-.292.65.032 1.104-.025 1.363-.17.568-.31 1.307-.398 2.215-.269.308.033.738.13 1.29.293.584.162 1.014.26 1.29.292.73.113 1.314.267 1.752.462 1.023.422 1.534 1.063 1.534 1.923-.017 1.525-.138 2.425-.365 2.701a.67.67 0 0 1-.317.244c.211 1.168.446 2.482.706 3.942.73 4.203 1.298 6.872 1.704 8.008a.264.264 0 0 1 .097.048zm15.65-14.578c.583-1.022 1.094-1.615 1.533-1.777-.114.049.357-.065 1.411-.34 1.168-.293 1.769-.439 1.801-.439.844-.097 1.793.292 2.848 1.169.714.584 1.006 1.411.876 2.482a2.201 2.201 0 0 1-.097.511c.113-.032.154-.04.121-.024.049.024.057.057.073.073.033.178.073.438.122.779l.146.754c.39 2.385.649 3.845.779 4.38.243 1.007.519 2.54.827 4.6.325 2.045.609 3.578.852 4.6.049.276-.081.406-.39.39-.405.292-1.119.6-2.141.925-.99.292-1.696.608-2.117.95-.163.145-.317.129-.463-.05a.306.306 0 0 1-.243-.048c-.552-.276-1.339-.52-2.361-.73a20.932 20.932 0 0 1-1.412-.292c-.251-.055-.194-.04-.39-.098a3.76 3.76 0 0 1-.632-.195c-.113-.032-.186-.097-.219-.194a.54.54 0 0 1-.024-.17c.032-.52.024-1.104-.025-1.753-.21.016-1.103.398-2.677 1.144-.21.114-.365.065-.462-.146a.472.472 0 0 1-.22-.22c-.08-.129-.097-.161-.048-.096a.264.264 0 0 1-.049-.098c-.243.227-.43.195-.56-.097-.21-.438-.437-1.022-.68-1.753a.326.326 0 0 1-.074.268c-.162.162-.527.422-1.095.779-.373.243-.673.43-.9.56a.501.501 0 0 1-.244.194.365.365 0 0 1-.073.341c-.113.081-.227.098-.34.049-.504-.227-1.201-.487-2.094-.779a29.146 29.146 0 0 1-2.093-.779c-.26-.097-.292-.276-.097-.535v-1.704c.113-2.255.178-3.407.195-3.456.08-.681.227-1.541.438-2.58.26-1.46.422-2.32.486-2.58.179-1.119.333-1.914.463-2.385.049-.194.09-.389.122-.584-.195-.26-.293-.657-.293-1.192-.762-.795-.21-1.639 1.655-2.531.747-.357 1.315-.56 1.704-.609.65-.081 1.663.049 3.042.39 1.055.26 1.72.64 1.996 1.143.26.439.414 1.169.462 2.19.026.282.037.448.032.497.043-.08.22-.393.528-.934zm24.921 2.263c0 .049.114.568.341 1.558.162.616.016 1.12-.438 1.509.081.892.065 1.995-.049 3.31-.276 2.904-.316 5.5-.121 7.788v.073c.097.178.048.324-.146.438-.098.065-.382.357-.852.876-.763.795-1.217 1.274-1.363 1.436-1.12 1.087-1.817 1.395-2.093.925a.416.416 0 0 1-.34 0c-.13-.097-.196-.203-.196-.316v-.025c-.568-.227-1.225-.681-1.971-1.363-.795-.73-1.257-1.363-1.387-1.898-.033-.179.032-.308.194-.39a6.71 6.71 0 0 1-.073-.827c0-.21.025-.73.073-1.558.082-2.109.082-3.715 0-4.819a60.932 60.932 0 0 0-.486-4.332 8.563 8.563 0 0 1-.049-.34 1.108 1.108 0 0 1-.535-.755c-.082-.34-.009-.633.219-.876-.26-.584-.057-1.168.608-1.752.195-.163.438-.455.73-.877.308-.405.552-.697.73-.876.65-.568 1.46-.852 2.434-.852.941 0 1.777.26 2.507.78l.754.535c.292-.049.511-.033.658.048.421.244.705.528.851.852.163.438.163 1.014 0 1.728z"/>
    <path fill="#333" d="M3.427 6.77c-.795-.406-1.257-.722-1.387-.95-.097-.21-.049-.372.146-.486.195-.113.349-.073.462.122.033.081.195.203.487.365.276.162.56.316.852.462.746.357 1.33.6 1.752.73.633.179 1.51.057 2.629-.365 1.46-.551 2.353-.86 2.677-.924.227-.033.365.056.414.267.065.227-.008.365-.22.414a1.752 1.752 0 0 0-.364.097c.065.098.048.187-.049.268.016.097.073.227.17.39.049.113.017.202-.097.267s-.203.04-.268-.073a3.04 3.04 0 0 1-.194-.438.853.853 0 0 1-.05-.268 4.804 4.804 0 0 0-.364.122c.016.065.008.114-.025.146a.416.416 0 0 0-.073.195c.082.032.138.057.17.073.13.032.18.113.147.243s-.114.179-.244.146c.017 0-.064-.04-.243-.121-.097-.033-.146-.057-.146-.073a.309.309 0 0 1-.073-.146.74.74 0 0 1 0-.268l-.779.316v.049c.016.016.033.024.049.024a.264.264 0 0 0 .097.049c.13.016.179.097.146.243-.032.114-.113.154-.243.122-.211-.032-.349-.138-.414-.316l-.024-.025c-.292.098-.56.179-.803.244.08.13.138.21.17.243.065.114.04.203-.073.268-.114.065-.203.048-.268-.049a6.777 6.777 0 0 1-.243-.365c-.211.032-.414.049-.609.049v.024l.074.219c.016.114.032.195.048.243.033.114-.016.187-.146.22-.113.048-.195.008-.243-.122 0-.016-.025-.114-.073-.292-.114-.033-.162-.114-.146-.244 0-.016.008-.04.024-.073a6.724 6.724 0 0 1-.608-.121 14.944 14.944 0 0 1-2.045-.9zm13.24-3.286c-.227.033-.373-.064-.438-.292-.065-.227.016-.357.243-.389.536-.081 1.185.114 1.947.584.893.552 1.404.844 1.534.876.032-.097.105-.138.219-.121.113.016.17.073.17.17h.024c.114-.016.804-.325 2.07-.925 1.021-.487 1.93-.86 2.725-1.12.211-.08.349-.008.414.22.048.227-.033.373-.244.438.017 0-.032.024-.146.073.05.194.13.39.244.584.065.113.04.203-.073.268-.13.064-.22.04-.268-.073-.13-.211-.227-.43-.292-.658l-.974.39v.073c-.016.178.106.381.366.608.113.081.121.17.024.268-.097.097-.195.105-.292.024-.292-.243-.455-.503-.487-.778l-.584.267a.847.847 0 0 0 .438.73c.114.065.138.155.073.268-.065.114-.154.138-.268.073-.357-.21-.568-.503-.632-.876l-.925.462v.025c-.033.308.065.495.292.56.13.048.178.137.146.267-.049.114-.13.154-.244.122-.389-.114-.584-.373-.584-.779a3.93 3.93 0 0 1-.608.17.905.905 0 0 1-.22.025c.017.178.098.438.244.779.049.113.008.194-.122.243-.13.032-.219-.016-.267-.146-.146-.373-.236-.682-.268-.925a2.906 2.906 0 0 1-.779-.316c.033.227.073.43.122.608.032.114-.008.195-.122.244-.13.032-.219-.017-.267-.147-.05-.21-.106-.535-.17-.973l-.05-.049a3.95 3.95 0 0 1-.292-.17 7.747 7.747 0 0 1-.316-.22c.13.31.276.617.438.926.065.113.04.203-.073.267-.113.082-.203.065-.268-.048a7.68 7.68 0 0 1-.56-1.241.205.205 0 0 1 .025-.17c-.357-.18-.665-.244-.925-.196zm4.577 20.37c.006.008.006.009-.001.001h.001zm0 0c.08-.031.112-.047.096-.047a.212.212 0 0 1 .219.024c.049.049.073.122.073.22l-.049.145.244.243c.13-.064.26-.105.39-.121.129-.016.194.04.194.17 0 .146-.065.227-.195.244h-.073c.227.194.714.592 1.46 1.192.617.487 1.088.9 1.412 1.241.503-.146 1.168-.397 1.996-.754a52.132 52.132 0 0 1 1.995-.828c.05-.016.56-.162 1.534-.438.048-.016.13-.04.243-.073.097-.032.179-.057.243-.073-.162-.795-.446-2.547-.851-5.257-.325-2.174-.666-3.918-1.023-5.232-.778-3.002-1.208-4.69-1.29-5.063-.356-1.85-.665-3.212-.924-4.089-.195.114-.414.211-.657.293-.422.13-.966.21-1.631.243-.617.049-1.022.162-1.217.34-.065.066-.397.496-.998 1.29-.21.309-.462.471-.754.487a1.92 1.92 0 0 1-.876-.146c.535 2.613.973 4.552 1.314 5.817.08.357.235.852.462 1.485l.487 1.46c.016.114.17.827.462 2.142l.244.39c.097.145.08.275-.049.389.146.21.106.38-.122.51h-.024c-.195.098-.349.066-.462-.097l-.073-.073a.322.322 0 0 1-.073-.39.46.46 0 0 1-.025-.145l-.121-.122a.329.329 0 0 1-.073-.316 11.595 11.595 0 0 0-1.023-1.047c-.519-.487-.876-.827-1.07-1.022a28.79 28.79 0 0 1-1.242-1.509 79.97 79.97 0 0 0-1.241-1.533c-2.92-3.294-4.462-5.054-4.624-5.282l-.146.05a.88.88 0 0 1-.511-.123c-.195-.113-.341-.178-.438-.194-.033 0-.455.243-1.266.73a2.675 2.675 0 0 1-1.655.39c-.99-.098-1.574-.106-1.752-.025-.227.097-.438.284-.633.56-.26.39-.43.616-.511.681a.967.967 0 0 1-.146.122c.016.13.04.284.073.462.097.39.235.917.414 1.582.275 1.039.73 2.661 1.362 4.868.114.34.244.77.39 1.29.097.08.122.17.073.267 1.006 3.456 1.728 6.004 2.166 7.643.406 1.46.681 2.547.827 3.26.114.585.17.926.17 1.023.066-.049.139-.105.22-.17.535-.39 1.217-.78 2.044-1.169.86-.389 1.59-.665 2.19-.827.228-.065.398-.105.512-.122-.081-.276-.34-.981-.779-2.117-.21-.568-.462-1.371-.754-2.41a74.353 74.353 0 0 0-.706-2.433c-.698-1.996-1.104-3.197-1.217-3.602-.308-1.039-.446-1.704-.414-1.996a.652.652 0 0 1 .024-.292.324.324 0 0 1 .122-.146.305.305 0 0 1 .073-.122c.097-.13.211-.162.34-.097.114.048.187.146.22.292.113.065.795.77 2.044 2.117.292.325.795.868 1.51 1.63a85.718 85.718 0 0 0 1.508 1.632 372.077 372.077 0 0 1 2.338 2.579zm.704 2.727c.163.016.309.033.439.049.649.065 1.022.097 1.12.097-.033-.016-.325-.243-.877-.681a5.87 5.87 0 0 0-.682.535zm-6.23-6.522c.276-.26.503-.422.681-.487l-.365-.39c-.697.195-1.103.503-1.217.925.065.227.146.463.244.706.194-.276.414-.527.657-.754zm-.146 1.46c.357-.503.852-.909 1.484-1.217.017.016-.089-.105-.316-.365-.21-.065-.52.13-.925.584-.21.227-.381.438-.51.633l.048.049c.065.097.138.202.219.316zm.608.779c.487-.52.974-.974 1.46-1.363-.08-.098-.178-.211-.291-.34-.682.291-1.185.713-1.51 1.265.098.113.212.26.341.438zm.691.921c.002-.051.534-.513 1.597-1.384l-.56-.608c-.21.162-.397.316-.56.462a12.61 12.61 0 0 0-.9.95c.158.22.301.412.428.571l-.005.01zm.618.95c.01-.018.231-.236.663-.654.357-.341.64-.544.852-.609.13-.032.21.016.243.146.032.13-.008.211-.122.244-.162.048-.462.292-.9.73a20.5 20.5 0 0 0-.487.462c.097.162.187.325.268.487.227-.162.535-.406.925-.73.421-.373.722-.625.9-.755.032-.032.065-.048.097-.048a42.525 42.525 0 0 0-.608-.658 44.942 44.942 0 0 1-.584-.657c-.146.098-.406.357-.779.78-.292.324-.568.543-.827.656.144.193.273.386.386.58l-.027.026zm1.028 1.706c.292-.178.657-.446 1.095-.803.487-.422.836-.706 1.047-.852a16.332 16.332 0 0 1-.536-.56c0 .066-.032.122-.097.171-.179.13-.487.381-.925.754-.373.341-.69.593-.95.755.082.178.155.357.22.535h.146zm2.653-.997c.016 0 .04-.017.073-.05l-.317-.316c-.227.163-.527.398-.9.706-.422.341-.722.584-.9.73.161.017.34.041.535.073l.048-.048c.081-.033.568-.398 1.46-1.095zm.486.34l-.146-.146a6.41 6.41 0 0 1-.292.268 2.003 2.003 0 0 1-.243.219l-.779.608c.795.195 1.209.3 1.241.317.503-.406.795-.633.876-.682a8.655 8.655 0 0 1-.657-.584zm-6.254-6.693a4.84 4.84 0 0 0-.463.317 5.81 5.81 0 0 1-.438.34c0 .017.04.146.122.39.227-.292.592-.527 1.095-.706a.725.725 0 0 1-.073-.097.381.381 0 0 0-.097-.073 1.589 1.589 0 0 1-.146-.17zm-1.169-.121c.017 0 .065.13.146.39l.39-.293a3.54 3.54 0 0 1 .365-.292 55.407 55.407 0 0 0-.317-.414 1.19 1.19 0 0 0-.632.438c.048.114.065.17.048.17zm.341-.95a4.99 4.99 0 0 0-.754-.778l.048.292c.049.243.114.51.195.803a1.81 1.81 0 0 1 .511-.317zm-5.865 3.943l-.414-1.484c-.211.308-.487.73-.828 1.265-.39.617-.665 1.039-.827 1.266-.065.113-.162.138-.292.073.146.487.284.957.414 1.411a9.36 9.36 0 0 1 .949-1.509c.422-.567.754-.908.998-1.022zm-1.363 4.527c-.017-.276.26-.787.827-1.533.454-.6.803-1.006 1.047-1.217-.211-.763-.341-1.225-.39-1.387-.243.13-.576.51-.998 1.144a9.888 9.888 0 0 0-.851 1.484l-.073.073c.243.893.454 1.736.632 2.531.017-.308.203-.706.56-1.192a8.589 8.589 0 0 1 1.266-1.436c.065-.065.13-.081.194-.049a.754.754 0 0 1-.048-.146.666.666 0 0 1-.025-.146 1.726 1.726 0 0 0-.073-.219 6.655 6.655 0 0 0-.073-.243c-.227.21-.527.576-.9 1.095-.47.649-.698 1.063-.682 1.241 0 .13-.065.195-.194.195-.13 0-.203-.065-.22-.195zm3.018 4.576c.113-.244.316-.536.608-.877-.049-.21-.097-.405-.146-.584a285.12 285.12 0 0 0-.414-1.63h-.024c-.503.21-.998.949-1.485 2.214l.341.195c.032-.081.357-.543.974-1.387.064-.097.154-.114.267-.049.114.065.138.146.073.244-.616.86-.925 1.33-.925 1.411.292.179.536.333.73.463zm.997.584l.025-.025c-.016 0-.025.009-.025.025zm-.17-.414a4.535 4.535 0 0 0-.097-.56c-.195.227-.325.422-.39.584.195.146.382.276.56.39a7.762 7.762 0 0 0-.073-.414zm-3.164-1.874c-.13-.438.049-1.07.536-1.898.454-.747.884-1.25 1.29-1.51a9.736 9.736 0 0 1-.195-.73c-.438.39-.82.812-1.144 1.266-.454.633-.641 1.087-.56 1.363.049.097.024.17-.073.219-.097.049-.178.04-.243-.024.097.438.178.868.243 1.29a.303.303 0 0 1 0 .17c.195.146.414.292.657.438.13-.276.203-.438.22-.487.437-1.006.908-1.614 1.41-1.825a.16.16 0 0 1 .147-.024 42.83 42.83 0 0 0-.34-1.242c-.342.244-.699.674-1.072 1.29-.422.747-.592 1.282-.51 1.607.032.13-.009.21-.123.243-.13.032-.21-.016-.243-.146zm-3.14-11.317c.082.292.163.56.244.803.13.487.316 1.152.56 1.996.292.973.495 1.638.608 1.995v-.024c.13-.195.43-.665.9-1.412.374-.584.69-1.054.95-1.411a76.963 76.963 0 0 1-.39-1.314c-.016.032-.097.13-.243.292-.178.243-.357.503-.535.778-.406.65-.658 1.144-.755 1.485-.032.13-.113.17-.243.122-.13-.033-.179-.106-.146-.22.146-.502.478-1.127.998-1.873.373-.552.649-.885.827-.998-.324-1.12-.6-2.06-.827-2.823-.211-.78-.357-1.315-.439-1.607-.194.114-.69.86-1.484 2.24-.065.113-.154.137-.268.072-.113-.08-.138-.17-.073-.267.844-1.46 1.42-2.28 1.728-2.458-.13-.455-.235-.844-.316-1.169a.216.216 0 0 0-.025-.097c-.308.26-.657.698-1.046 1.314-.39.633-.6 1.087-.633 1.363-.016.13-.09.17-.219.122-.13-.033-.187-.114-.17-.243.065-.374.34-.917.827-1.631.422-.633.795-1.08 1.12-1.339a.8.8 0 0 1-.025-.194c-.162.032-.308.04-.438.024a1.027 1.027 0 0 1-.316-.097c-.033.032-.52.73-1.46 2.093-.017.048-.05.073-.098.073.146.519.35 1.168.609 1.947.34 1.07.543 1.711.608 1.922.714-1.314 1.217-2.166 1.51-2.555.08-.097.161-.097.242 0 .098.097.106.195.025.292-.162.21-.69 1.136-1.582 2.774 0 .017-.008.025-.024.025zM2.503 8.425l.098.779c.308-.308.56-.527.754-.657l-.073-.049c-.21-.162-.47-.186-.779-.073zm.195 1.266h-.024c.162.892.397 1.874.706 2.945.73-1.136 1.168-1.777 1.314-1.923a1.613 1.613 0 0 1-.438-.487l-.195.34c-.146.244-.3.512-.462.804-.05.114-.13.138-.244.073-.13-.065-.162-.154-.097-.268.227-.422.422-.754.584-.998.097-.146.17-.251.219-.316a5.948 5.948 0 0 1-.146-.316 8.039 8.039 0 0 0-.316-.682c-.146.081-.447.357-.9.828zm3.553 1.168l.05-.024a.187.187 0 0 0-.074.024h.024zM1.212 7.427c.211.373.439.536.682.487a.33.33 0 0 1 .243-.097c.26-.098.463-.155.609-.17.649-.066 1.16.275 1.533 1.021.52 1.006.836 1.534.95 1.582-.033 0-.025.009.024.025.048-.033.056-.049.024-.049.13-.065.219-.032.268.097.357-.016.673-.251.949-.705.292-.503.657-.82 1.095-.95.26-.08.86-.089 1.801-.024.73.049 1.282-.097 1.655-.438.487-.438.917-.657 1.29-.657.227 0 .414.04.56.122.032.016.121.08.267.194 0-.276.13-.397.39-.365.097-.227.154-.527.17-.9.016-.325-.138-.739-.462-1.242-.714-1.087-1.623-1.817-2.726-2.19-.795-.292-1.955-.178-3.48.34-1.737.601-2.905.942-3.505 1.023-1.006.146-1.558.227-1.655.243-.617.114-.998.228-1.144.341-.13.779.024 1.55.462 2.312zm17.183 1.655c.016.081.033.154.049.22.032.194.065.421.097.68a.381.381 0 0 1 .097-.072c.082-.033.609-.511 1.582-1.436l-.024-.025-.195-.949c-.016.016-.113.057-.292.122a.712.712 0 0 0-.194.122l.048-.025c.114-.032.187.008.22.122.032.13-.009.219-.122.268-.39.13-.795.438-1.217.925l-.049.048zM16.96 5.748c.584.616 1.03 1.574 1.339 2.872.292-.325.584-.568.876-.73-.13.016-.308-.017-.536-.098-.373-.113-.649-.39-.827-.827a3.905 3.905 0 0 1-.17-.633c-.065-.276-.138-.479-.22-.608-.08-.146-.194-.17-.34-.073a.798.798 0 0 1-.122.097zm4.405 8.056l.049-.049a5.637 5.637 0 0 1-.122-.414c-.227-.957-.462-2.003-.706-3.14a4.591 4.591 0 0 0-.292.341c-.113.13-.3.325-.56.585l-.535.608c-.08.097-.17.106-.267.024-.082-.097-.082-.194 0-.292.113-.162.308-.39.584-.681.275-.292.47-.511.584-.657.292-.341.413-.487.365-.438-.049-.211-.098-.463-.146-.755-.795.795-1.29 1.233-1.485 1.314-.097.05-.178.033-.243-.048.194 1.265.381 2.158.56 2.677.048-.114.194-.333.438-.657.422-.584.738-.893.949-.925.113-.016.195.04.243.17.033.13-.016.203-.146.22-.146.016-.397.283-.754.803-.341.503-.511.819-.511.949v.048c.08.195.032.357-.146.487.113.146.3.381.56.706.227.308.413.552.56.73.096-.21.259-.479.486-.803.26-.357.438-.625.535-.803zm-.219 2.53c.13-.307.373-.68.73-1.119a43.573 43.573 0 0 1-.243-.705.263.263 0 0 1-.219-.05c-.454.65-.722 1.08-.803 1.29.195.228.373.423.535.585zm.9.877a.98.98 0 0 1 .317-.414 7.125 7.125 0 0 1-.073-.316 22.66 22.66 0 0 1-.268-.803c-.227.276-.389.527-.486.754-.033.081-.09.122-.17.122.113.13.145.17.097.122.13.113.324.292.584.535zm.439.024a.54.54 0 0 0-.073.17l-.049.098c.081.081.162.154.244.22a5.334 5.334 0 0 1-.122-.488zM16.429 5.217c.025-.038.169-.128.433-.272.13-.049.268-.081.414-.098.275-.032.51.114.705.438.017.033.13.398.341 1.096.13.47.349.73.657.779.195.048.446-.065.755-.341.34-.292.64-.35.9-.17a.827.827 0 0 1 .317.389c.048.13.21.21.486.243.195.049.382-.057.56-.316.617-.957 1.185-1.501 1.704-1.63.227-.066.649-.123 1.265-.171.536-.049.958-.13 1.266-.244.113-.032.219-.08.316-.146.081-.275.195-.446.341-.51a.382.382 0 0 1 .268-.05c.065-.113.113-.235.146-.364.048-.26.105-.682.17-1.266-1.898-1.038-2.734-1.509-2.507-1.412-.99-.454-1.906-.592-2.75-.413-.6.13-1.712.438-3.334.924-1.396.422-2.523.69-3.383.804 0 .178-.09.292-.268.34-.032.341.146.795.536 1.363.377.602.598.944.662 1.027zm14.622 20.512a2.155 2.155 0 0 0-.317.098c-.146.032-.251.057-.316.073-.811.243-1.314.405-1.509.487-2.125.86-3.342 1.338-3.65 1.435.032.179-.041.309-.22.39-.194.081-.332.032-.413-.146a.381.381 0 0 0-.073-.098c-.017.082-.073.122-.17.122-.536-.049-1.25.122-2.143.511-.94.422-1.508.836-1.703 1.241-.049.114-.13.138-.244.074-.13-.082-.162-.179-.097-.293.227-.47.844-.924 1.85-1.362.94-.406 1.68-.6 2.215-.585-.065-.032-.86-.17-2.386-.413-.308-.033-.795-.146-1.46-.341-.535.114-1.12.446-1.752.998-.098.08-.195.073-.292-.025-.098-.08-.098-.17 0-.267.503-.422.933-.714 1.29-.876-.6-.146-1.12-.203-1.558-.17-.178.015-.292-.066-.34-.244a6.397 6.397 0 0 0-.633-1.533c-.065-.033-.098-.09-.098-.17-.276-.439-.722-1.047-1.338-1.826.47 1.606.713 2.434.73 2.482.097.341.251.771.462 1.29.26.633.43 1.055.511 1.266.049.162.122.438.22.827.015.016.024.04.024.073a.187.187 0 0 1 .024.073c.049.017.105.04.17.073.26.114.284.284.073.511a.54.54 0 0 1-.073.17c-.21.342-.43.317-.657-.072h-.048c-.244.032-.495.089-.755.17-.633.195-1.266.446-1.898.755-.714.34-1.29.665-1.728.973-.309.227-.511.398-.609.511.016.114-.024.211-.121.292-.033.146-.138.227-.317.244-.162.016-.276-.04-.34-.17-.114-.098-.163-.204-.147-.317a4.599 4.599 0 0 0-.608-.463c-.13.13-.227.114-.292-.048a.869.869 0 0 1-.073-.22c-.162-.097-.722-.437-1.68-1.021-.113-.017-.186-.057-.219-.122a10.083 10.083 0 0 1-.803-.511c-.113.08-.243.08-.39 0-.145-.081-.194-.203-.145-.365-.016.048-.016.032 0-.049 0-.065.008-.114.024-.146.016-.081.073-.154.17-.219-.34-1.817-1.273-5.322-2.798-10.514-1.574-5.354-2.426-8.526-2.556-9.516a.262.262 0 0 1-.048-.146c-.714 0-1.234-.536-1.558-1.607-.292-.957-.316-1.776-.073-2.458.081-.243.251-.308.511-.194.097-.049 1.111-.228 3.042-.536.584-.097 1.371-.332 2.361-.706 1.103-.389 1.89-.64 2.36-.754 1.315-.292 2.58.024 3.798.95.616.47 1.103.965 1.46 1.484.487.681.73 1.233.73 1.655 0 .616-.114 1.135-.34 1.557a.216.216 0 0 1 .024.098c-.017-.017 1.444 1.647 4.38 4.989-.08-.276-.308-1.387-.681-3.334-.34-1.85-.836-3.075-1.485-3.675a.311.311 0 0 1-.121-.195c-.244-.081-.455-.284-.633-.609-.065-.113-.203-.34-.414-.681a7.005 7.005 0 0 1-.39-.706c-.324-.697-.364-1.257-.121-1.68.097-.145.243-.21.438-.194a.366.366 0 0 1 .292-.219c.86-.113 2.134-.43 3.821-.949 1.769-.535 2.905-.82 3.408-.852.86-.065 2.66.633 5.403 2.093.13.065.186.162.17.292-.065.73-.097 1.055-.097.974-.082.714-.26 1.217-.536 1.509v.024c.276.925.617 2.434 1.022 4.527.13.681.333 1.533.609 2.555l.706 2.532c.324 1.281.657 3.05.997 5.305.39 2.596.682 4.373.877 5.33.032.081.04.154.024.22a.516.516 0 0 1-.195.218.432.432 0 0 1-.194.049l-.341.097zM20.805 12.952c.113-.065.202-.04.267.073.065.13.04.219-.073.268-.048.032-.21.202-.487.51-.26.31-.43.512-.51.61-.082.113-.18.129-.293.048-.113-.065-.13-.146-.048-.243.113-.163.308-.398.584-.706.292-.341.478-.528.56-.56zM7.127 17.016c-.179-.016-.463.325-.852 1.023-.276.535-.438.94-.487 1.216-.016.13-.09.179-.219.147-.13-.05-.187-.13-.17-.244.065-.454.316-1.022.754-1.704.39-.584.714-.868.974-.851.13.016.194.089.194.219 0 .146-.065.21-.194.194zm-.658 13.46c-.908-.066-1.5.226-1.776.875-.049.114-.13.138-.244.073-.113-.064-.146-.154-.097-.267.34-.795 1.047-1.152 2.117-1.071.13 0 .195.065.195.195s-.065.194-.195.194zm.658 1.41c-.374 0-.722.196-1.047.585-.097.097-.187.105-.268.024-.097-.097-.105-.194-.024-.292.39-.47.836-.714 1.339-.73.13 0 .194.073.194.22 0 .129-.065.194-.194.194zm.924 1.461c.13-.032.211.016.244.146.032.13-.016.203-.146.22-.795.145-1.404.518-1.826 1.119-.08.097-.178.113-.292.048-.113-.064-.13-.154-.048-.267.486-.698 1.176-1.12 2.068-1.266zm2.215-.462c.13.016.195.089.195.219s-.065.194-.195.194c-.503-.032-.917.22-1.241.755-.065.114-.154.138-.268.073-.113-.065-.138-.154-.073-.268.406-.681.933-1.006 1.582-.973zm-.657-1.947c.13 0 .195.073.195.219 0 .13-.065.194-.195.194-.422-.016-.844.211-1.266.682-.08.097-.17.105-.267.024-.098-.097-.098-.194 0-.292.47-.551.981-.827 1.533-.827zm6.96 0c.13 0 .195.065.195.194 0 .13-.064.203-.194.22-1.33.032-2.028.324-2.093.876 0 .13-.073.194-.22.194-.13 0-.186-.065-.17-.194.081-.812.909-1.242 2.483-1.29zm3.53-2.604c.113-.033.194.016.243.146.033.13-.016.21-.146.243-.34.097-.9.381-1.68.852-.113.065-.202.04-.267-.073-.065-.114-.04-.203.073-.268.811-.503 1.404-.803 1.777-.9zm7.764-.609c.113-.081.202-.057.267.073.065.114.04.203-.073.268-.324.195-1.022.478-2.093.852-.892.324-1.557.681-1.996 1.07-.097.082-.186.074-.267-.024-.098-.097-.098-.186 0-.268.454-.389 1.127-.754 2.02-1.095 1.087-.39 1.8-.681 2.142-.876zm3.796-1.338c.13 0 .195.073.195.219 0 .13-.065.186-.195.17-.584-.049-1.192.26-1.825.925-.081.097-.17.097-.268 0-.097-.098-.097-.195 0-.292.698-.747 1.396-1.087 2.093-1.022zm23.535 5.378c.13-.113.357-.373.682-.779a1.02 1.02 0 0 1-.658.073c-.113-.016-.154-.089-.121-.219.032-.13.113-.186.243-.17.292.065.633-.146 1.022-.633.244-.276.479-.608.706-.998.065-.13.162-.138.292-.024.016-.032.033-.049.049-.049a.54.54 0 0 1-.073-.17c-.016-.032-.033-.049-.049-.049a7.62 7.62 0 0 1-.195-.633 6.26 6.26 0 0 1-.657.804c-.584.616-1.079.981-1.484 1.095h-.073l.024.122c.13.665.227 1.208.292 1.63zm-.608.511v-.073c0 .049-.033-.162-.098-.633a26.17 26.17 0 0 0-.121-.632 58.717 58.717 0 0 1-.195-.925c-.552-2.71-.803-3.992-.755-3.846-.373-1.59-.665-3.488-.876-5.695-.08-.778-.162-1.5-.243-2.166-.049 0-.154-.024-.317-.073a2.662 2.662 0 0 0-.316-.024c-.097 0-.284.203-.56.608-.13.179-.3.325-.51.438-.828.455-1.688.293-2.58-.486l-.317-.317a4.303 4.303 0 0 0-.39-.39c-.356-.291-.632-.324-.827-.096-.13.13-.284.332-.462.608-.211.325-.365.544-.463.657-.373.47-.82.665-1.338.584-.503-.097-.974-.6-1.412-1.509a59.2 59.2 0 0 0-.584 1.339c-.941 2.239-1.81 4.267-2.604 6.084-.536 1.201-.966 2.11-1.29 2.726-.406.779-.714 1.363-.925 1.753-.032.21-.081.51-.146.9a.447.447 0 0 1 .268.17c.13.179.462.35.998.512.438.146 1.022.267 1.752.365.925.146 1.858.219 2.799.219.097-.276.397-.9.9-1.874.568-1.136.82-1.883.755-2.24-.033-.194.048-.332.243-.413.179-.065.308-.025.39.121.064-.08.154-.113.267-.097.211.016.641.097 1.29.243.552.147.998.203 1.339.17a.225.225 0 0 1 .146 0c.195.017.292.123.292.317a.326.326 0 0 1-.073.268c-.098.114-.098.568 0 1.363.032.26.113.762.243 1.509.26.016.795.04 1.607.073.681.032 1.225.097 1.63.195.098.016.308.056.633.121.243.081.446.138.608.17.617.114.958.139 1.023.074a.303.303 0 0 1 .219-.098zm-8.712-1.973c.113-.145.226-.299.34-.46-.52-.195-.877-.276-1.071-.244-.082.195-.179.406-.293.633.633.041.974.065 1.024.071zm-.415-1.556h-.049c-.032.13-.073.276-.121.438.13 0 .51.106 1.143.317.114-.211.195-.39.244-.536h-.073c-.536-.162-.917-.235-1.144-.219zm-.783 1.882c-.044-.005-.042-.008.004-.008a6.548 6.548 0 0 0-.004.008zm0 0c-.097.177-.217.418-.361.722-.227.439-.398.804-.511 1.096.13-.065.324-.22.584-.463a15.09 15.09 0 0 0 1.047-1.12c.016-.016.064-.072.146-.17-.51-.033-.811-.055-.905-.065zm.433-18.108a127.554 127.554 0 0 1-.001.001l.001-.001zm0 0c-.708.547-1.07.837-1.086.869-.179.34-.333.746-.462 1.217-.357 1.217-.463 2.036-.317 2.458.065.162.016.284-.146.365.049.081.154.284.317.609.13.292.243.51.34.657.341.486.714.584 1.12.292.146-.114.39-.463.73-1.047.292-.47.6-.746.925-.827.47-.081 1.038.21 1.703.876.666.649 1.266.892 1.801.73.211-.065.422-.235.633-.511.211-.325.398-.527.56-.609.162-.097.381-.121.657-.073.13.033.235.05.317.05v-.025c.194-.016.389-.057.584-.122a.235.235 0 0 0 .121-.097c.114-.098.284-.325.511-.682.211-.292.398-.503.56-.632.227-.163.446-.244.657-.244h.463c.08-.065.154-.122.219-.17a.283.283 0 0 0 .048-.073c.082-.276.114-.803.098-1.582-.016-.65-.106-1.063-.268-1.241-.438-.471-1.306-.804-2.604-.998-.26-.033-.6-.106-1.022-.22a12.668 12.668 0 0 0-1.022-.267c-.893-.195-1.558-.179-1.996.049-.438.227-1.047.34-1.826.34-.535-.016-.908.09-1.12.317-.404.452-.57.65-.496.592l.001-.001zm8.275 8.6a.159.159 0 0 1-.064.057c.033.276.065.568.097.876.146-.162.422-.413.828-.754.373-.308.633-.576.779-.803.08-.098.178-.114.292-.049.113.065.138.146.073.243-.179.244-.487.544-.925.9-.422.358-.714.658-.876.901a.381.381 0 0 1-.098.073c.033.292.073.568.122.828.698-.876 1.38-1.606 2.045-2.19a5.324 5.324 0 0 1-.098-.512c-.081-.438-.154-.86-.219-1.265 0 .049-.024.09-.073.122-1.224 1.046-1.851 1.57-1.883 1.572zm2.467 1.274a11.414 11.414 0 0 0-.121-.73 18.513 18.513 0 0 0-1.948 2.142.381.381 0 0 1-.097.073c.097.649.211 1.257.34 1.825 0-.016.009-.024.025-.024 1.136-.78 1.826-1.404 2.069-1.874a16.459 16.459 0 0 1-.17-.95c-.714.65-1.234 1.258-1.558 1.826-.049.097-.138.113-.268.049-.113-.065-.138-.155-.073-.268.357-.633.957-1.323 1.801-2.069zm-2.82-4.282a.087.087 0 0 0-.052.023v.024a.21.21 0 0 1 .059-.045l-.007-.002zm1.75-1.632c-.212 0-.366.057-.463.17a5.968 5.968 0 0 0-.39.536c-.162.227-.3.397-.413.51.795-.567 1.184-.851 1.168-.851a.3.3 0 0 1 .17-.049 2.886 2.886 0 0 0-.073-.316zm-1.729 2.117l.049.633c.211-.227.527-.47.95-.73.55-.325.883-.527.997-.608a9.123 9.123 0 0 0-.122-.706c-.113.097-.413.308-.9.633-.373.243-.65.478-.828.705a.164.164 0 0 1-.146.073zm2.264.73c-.065-.34-.122-.673-.17-.997.016-.017-.268.162-.852.535-.633.39-1.006.706-1.12.95.016.178.032.34.049.486 0-.049.016.073.048.365.195-.195.479-.43.852-.706.455-.373.747-.608.876-.706.13-.13.236-.105.317.073zm-.511 10.32c.016-.016.032-.025.048-.025.357-.097.795-.43 1.315-.997.373-.422.632-.763.778-1.023a21.28 21.28 0 0 1-.243-.973c-.649.925-1.241 1.55-1.777 1.874-.113.065-.202.04-.267-.073-.065-.114-.04-.211.073-.292.503-.292 1.12-.974 1.85-2.045a39.45 39.45 0 0 0-.171-.851c-.6.908-1.144 1.541-1.63 1.898-.098.081-.18.065-.244-.049-.081-.113-.065-.21.049-.292.422-.324.99-1.03 1.703-2.117a4.558 4.558 0 0 1-.048-.317c-.325.422-.99.974-1.996 1.655a.205.205 0 0 1-.17.025c.064.227.089.332.073.316-.033-.195.186.9.657 3.286zm3.188-1.266c.26.195.235.52-.073.974-.26.39-.552.811-.876 1.265-.795 1.071-1.396 1.736-1.801 1.996a.264.264 0 0 1-.049.097c-.065.114-.178.163-.34.146-.276.292-1.08.268-2.41-.073a10.455 10.455 0 0 0-1.558-.267 774.744 774.744 0 0 0-2.434-.146c-.13-.017-.202-.106-.219-.268-.178-.99-.284-1.655-.316-1.996-.081-.519-.097-.892-.049-1.12-.13-.016-.275-.032-.438-.048-.065.438-.519 1.184-1.363 2.24-.405.502-.819.948-1.24 1.338-.423.39-.763.608-1.023.657a.35.35 0 0 1-.365-.122.216.216 0 0 1-.097.024c-1.12 0-2.288-.097-3.505-.292-1.542-.227-2.515-.616-2.92-1.168-.05-.065-.066-.13-.05-.195-.21-.032-.316-.146-.316-.34 0-.13.016-.252.049-.365.016-.065.032-.122.049-.17.146-.504.405-1.12.778-1.85a54.854 54.854 0 0 0 1.266-2.629 154.07 154.07 0 0 0 2.531-5.841 57.606 57.606 0 0 1 1.168-2.653c-.032-.146.025-.26.17-.34-.097-.293-.097-.771 0-1.437.114-.697.285-1.346.512-1.947.243-.649.487-1.095.73-1.338.081-.081.243-.179.487-.292.21-.114.357-.22.438-.317.357-.405.584-.64.681-.705.422-.211.86-.309 1.314-.292.65.032 1.104-.025 1.363-.17.568-.31 1.307-.398 2.215-.269.308.033.738.13 1.29.293.584.162 1.014.26 1.29.292.73.113 1.314.267 1.752.462 1.023.422 1.534 1.063 1.534 1.923-.017 1.525-.138 2.425-.365 2.701a.67.67 0 0 1-.317.244c.211 1.168.446 2.482.706 3.942.73 4.203 1.298 6.872 1.704 8.008a.264.264 0 0 1 .097.048zm-10.368-4.04v-.195a.216.216 0 0 0-.024-.097v-.073a1.818 1.818 0 0 0-.633.268c.243.016.462.048.657.097zm-.9-1.07c-.082.194-.17.372-.268.535a2.42 2.42 0 0 1 .852-.414 14.136 14.136 0 0 0-.585-.122zm.632-1.583c-.065.195-.138.39-.219.584.114.033.227.09.341.17-.049-.259-.09-.51-.122-.754zm-.365.974l-.097.243c.065 0 .17.025.316.073.146.016.252.033.317.049v-.049a.305.305 0 0 1-.122-.073c-.146-.162-.284-.243-.414-.243zm.609-2.361c.21.243.39.852.535 1.825.081.568.162 1.46.243 2.678.017.13-.024.219-.121.267-.114.081-.211.106-.292.073a28.58 28.58 0 0 0-.633-.17c-.406 0-1.014.008-1.825.024-.146 0-.252-.073-.317-.219-.048-.13-.024-.26.073-.39.73-.94 1.282-2.198 1.655-3.772a.353.353 0 0 1-.024-.413c.097-.146.227-.187.39-.122a.571.571 0 0 1 .194.122l.024.024a.381.381 0 0 0 .098.073zm.358-6.477zm0 0c-.052-.042 1.037.024 3.268.198.227.016.34.138.34.365 0 .243-.113.357-.34.34a.905.905 0 0 0-.219-.024v.025c-.081.08-.049.275.097.584.049.13.017.227-.097.292-.114.065-.195.04-.243-.073-.179-.39-.244-.657-.195-.803-.097 0-.211.008-.34.024v.097a.46.46 0 0 1 .023.146.927.927 0 0 0 .098.244c.065.113.04.203-.073.267-.114.065-.203.05-.268-.048a1.599 1.599 0 0 1-.122-.365c-.048-.146-.064-.236-.048-.268v-.049c-.876.081-1.525.017-1.947-.194-.763-.374-1.298-.576-1.607-.609-.827-.097-1.363-.178-1.606-.243-.21-.065-.284-.203-.219-.414.065-.227.203-.316.414-.268.21.065.487.114.827.146l.852.122c.436.065.905.234 1.405.508zm4.093.684h.002-.002zm.002 0c-.064-.097-.064-.202 0-.316.325-.633 1.023-.99 2.094-1.07.275-.017.389.113.34.389a.27.27 0 0 1 .025.121c-.033.341.016.674.146.998.032.114-.017.187-.146.22-.114.032-.195-.009-.244-.122a2.464 2.464 0 0 1-.17-.9c-.13.015-.268.048-.414.096 0 .017.097.398.292 1.144.033.13-.016.211-.146.244-.13.032-.21-.016-.243-.146-.211-.78-.317-1.144-.317-1.096a1.416 1.416 0 0 0-.462.293c.016.08.057.21.122.389l.292.681c.048.13.008.211-.122.244-.13.032-.219-.008-.268-.122-.276-.681-.397-.965-.365-.852a.262.262 0 0 1-.243-.024l.024.049c.033.097.09.365.17.803.065.34.122.543.17.608.147.179.139.35-.023.511-.163.163-.317.163-.463 0-.113-.146-.268-.649-.462-1.509-.114-.08-.17-.178-.17-.292 0-.21.105-.324.316-.34a.38.38 0 0 1 .265-.001h.002zM35.748 33.372c1.25-.486 2.215-.365 2.896.366.098.097.098.194 0 .292-.097.097-.186.097-.267 0-.585-.617-1.42-.706-2.507-.268-.13.049-.211.008-.244-.122-.032-.13.008-.219.122-.268zm6.255.633c.13.017.195.09.195.22s-.065.186-.195.17c-.114 0-.965.056-2.556.17-.113 0-.17-.065-.17-.195s.057-.194.17-.194c1.59-.114 2.442-.17 2.556-.17zm4.016 1.436c.13.033.17.114.121.244-.032.13-.105.178-.219.146-.227-.065-.543-.17-.949-.317a48.732 48.732 0 0 0-.973-.316c-.114-.049-.155-.138-.122-.268.032-.113.114-.154.243-.122.211.065.528.17.95.317.421.146.738.251.949.316zm2.117-1.557c.114.048.138.13.073.243-.065.114-.154.146-.268.097-1.363-.73-2.344-.852-2.945-.365-.097.081-.194.081-.292 0-.097-.097-.097-.186 0-.267.763-.617 1.907-.52 3.432.292zm2.288.146c-.568-.47-1.314-.666-2.24-.584-.129.016-.194-.041-.194-.17 0-.13.065-.204.195-.22 1.006-.097 1.85.13 2.53.682.098.08.098.17 0 .267-.096.098-.194.106-.291.025zm.998 1.265c.113.033.154.114.121.244-.032.13-.113.17-.243.121-.892-.34-1.898-.235-3.018.317-.113.048-.203.016-.268-.098-.065-.113-.04-.203.073-.267 1.234-.6 2.345-.706 3.335-.317zm3.65-1.29c.114.049.155.138.122.268-.032.13-.113.17-.243.122a2.663 2.663 0 0 1-.438-.22 4.38 4.38 0 0 0-.487-.218c-.373-.163-.698-.179-.974-.05-.113.05-.202.017-.267-.096-.065-.114-.04-.195.073-.244.34-.162.714-.17 1.12-.024.129.032.307.105.535.219.243.113.43.195.56.243zm27.016-2.75c1.087-.357 1.776-.657 2.068-.9a39.14 39.14 0 0 1-.17-.852c-2.45 1.087-3.756 1.639-3.919 1.655h-.048c.097.697.146.998.146.9.39-.26 1.03-.527 1.923-.803zM79.8 29.356c.065.6.113 1.03.146 1.29a.732.732 0 0 1 .024.121.216.216 0 0 0 .097-.024c-.016 0 1.258-.544 3.822-1.63l.024-.025c-.13-.779-.292-1.785-.487-3.018a67.887 67.887 0 0 0-.9-4.746l-.025-.097a.216.216 0 0 1-.097.024 6.52 6.52 0 0 0-.876.414c-.438.243-.722.397-.852.462-.828.39-1.42.593-1.777.609.065.357.122.746.17 1.168a11.723 11.723 0 0 0 1.534-.462c.487-.163.852-.309 1.095-.438.373-.179.576-.325.609-.439.048-.113.138-.154.267-.121.13.032.17.105.122.219-.114.324-.625.657-1.533.998-.698.275-1.371.495-2.02.657l.121.852c.438-.065.99-.244 1.655-.536.86-.373 1.323-.673 1.388-.9.048-.114.138-.154.267-.122.13.032.17.114.122.243-.114.325-.568.666-1.363 1.023-.844.389-1.509.616-1.996.681h-.024c.049.292.097.625.146.998.016 0 .032-.008.049-.024a6.845 6.845 0 0 0 1.8-.585c.747-.34 1.218-.665 1.412-.973.081-.114.179-.138.292-.073.114.065.13.154.05.268-.26.405-.78.778-1.559 1.12-.713.324-1.338.535-1.874.632-.048.016-.089.016-.121 0 .032.34.065.69.097 1.046.049.357.097.706.146 1.047.016-.016.033-.024.049-.024.519-.098 1.712-.544 3.577-1.339.13-.065.228-.032.293.097.064.114.04.195-.073.244-1.931.827-3.156 1.29-3.676 1.387a.27.27 0 0 1-.121-.024zm-.317 2.604l.025-.024a1.556 1.556 0 0 1-.049-.244 12.67 12.67 0 0 1-.146-.608c-.049-.211-.13-.852-.243-1.923-.228-1.93-.438-3.513-.633-4.746-.292-1.882-.47-3.326-.536-4.332-.13-1.525-.365-2.564-.705-3.115a1.19 1.19 0 0 1-.122-.073.563.563 0 0 1-.122-.073c-.113-.065-.397.016-.852.243-.389.211-.803.333-1.24.365-.699.065-1.193-.024-1.485-.268a22.3 22.3 0 0 0-.536.73c-.26.309-.584.73-.973 1.266a61.818 61.818 0 0 0-.998 1.29c-.098.13-.227.17-.39.122-.162-.065-.251-.17-.267-.317a.187.187 0 0 1-.025-.073c-.308-.681-.681-1.711-1.12-3.09a69.712 69.712 0 0 0-.656-1.972h-.146c-.114-.016-.3-.097-.56-.243-.211-.146-.398-.203-.56-.17-.114.032-.438.137-.973.316-.39.146-.714.202-.974.17.032.016.016.016-.049 0-.178.779-.332 1.55-.462 2.312-.016.097-.081.43-.195.998-.097.552-.186 1.047-.268 1.485a116.96 116.96 0 0 0-.462 2.53c-.081.471-.162 1.615-.243 3.432-.033.73-.057 1.201-.073 1.412 0 .357-.017.56-.049.608v.025c.016.048.032.105.049.17.308.13.876.333 1.703.609.747.243 1.306.438 1.68.584a.502.502 0 0 1 .194-.146c-.048.032-.04.032.025 0-.146-1.964-.187-3.148-.122-3.554.13-.795.203-1.249.219-1.363.065-.649.032-1.038-.097-1.168-.114-.097-.138-.203-.073-.316a.312.312 0 0 1 .267-.22.368.368 0 0 1 .244-.267.37.37 0 0 1 .365.097c.081.114 1.176 2.475 3.285 7.083l.025.048c.065-.097.146-.137.243-.121-.016.065.454-.86 1.412-2.775.6-1.184.949-2.093 1.046-2.726v-.754c0-.227.122-.333.365-.317.228.033.341.163.341.39v.024c0 .033.008.065.024.098a.398.398 0 0 1 .025.097.99.99 0 0 0-.049.243c0 .114-.008.203-.024.268.016.698.146 1.842.39 3.432.226 1.476.332 2.628.316 3.456.405.13 1.12.292 2.141.486.909.195 1.607.398 2.093.609zm-5.086-3.474c0 .004.008.01.024.018v-.012l-.024-.006zm-1.363-.76a1.703 1.703 0 0 1-.122.242c-.049.098-.09.17-.122.22.13 0 .576-.09 1.339-.268.097-.033.17 0 .22.097-.033-.26-.082-.56-.147-.9a44.449 44.449 0 0 0-.195-1.363c-.13.308-.332.73-.608 1.265a4.332 4.332 0 0 1-.195.39c.26-.033.503-.09.73-.17.114-.05.187-.009.22.121.048.13.007.21-.122.243a3.93 3.93 0 0 1-.78.22c-.096 0-.17-.033-.218-.098zm1.34.453c0-.005 0-.01-.002-.016l.003.016zm-.002-.016a.172.172 0 0 1-.146.146c-.827.195-1.33.292-1.509.292a.27.27 0 0 1-.121-.024c-.065.113-.114.21-.146.292a4.961 4.961 0 0 0-.317.657c.844-.438 1.452-.714 1.826-.827.097-.211.251-.284.462-.22a13.685 13.685 0 0 1-.046-.3l-.003-.016zm-4.867-.414c.13.033.227.106.292.22a53.808 53.808 0 0 0-.34-.901c-.342.438-.942.803-1.802 1.095.033.227.057.454.073.682.114-.081.26-.163.438-.244.568-.357.9-.592.998-.706a.343.343 0 0 1 .34-.146zm-1.801-2.458l.779-.39a.187.187 0 0 1 .073-.023c-.228-.52-.447-.933-.657-1.242 0 .179-.065.73-.195 1.655zm1.07.292a.216.216 0 0 1 .098-.024l-.146-.34-.024.024a7.989 7.989 0 0 1-.536.267 6.004 6.004 0 0 1-.535.244c-.016.21-.033.405-.049.584.114 0 .511-.252 1.193-.755zm-1.216 1.169v.267c0 .017.024.26.073.73.779-.275 1.306-.616 1.582-1.022.016-.032.048-.057.097-.073a12.398 12.398 0 0 0-.292-.754l-.024.024c-.763.552-1.242.828-1.436.828zm-1.241-15.066c-1.38.666-1.907 1.16-1.582 1.485a.361.361 0 0 1 .097.17.362.362 0 0 1 .097.268c-.016.422.017.69.098.803l.194.098c.13.016.35-.033.657-.146.925-.309 1.51-.414 1.753-.317.08.033.178.09.292.17.146.082.251.138.316.17.065.033.268-.032.609-.194.39-.178.705-.186.949-.024.178.113.365.308.56.584.162.26.397.324.705.195.163-.065.293-.017.39.146.065.146.195.3.39.462.226.211.38.243.462.097.065-.162.097-.421.097-.778 0-.666-.032-1.185-.097-1.558-.098-.681-.341-1.128-.73-1.339-.26-.162-.893-.357-1.899-.584-1.087-.243-1.898-.267-2.434-.073-.292.098-.6.22-.924.365zm4.234 4.04a14.05 14.05 0 0 1-1.022.512c.033.097.065.202.098.316.016-.016.032-.024.048-.024.373 0 .844-.244 1.412-.73l-.098-.098c-.162.033-.308.04-.438.024zm-.778-.584a8.577 8.577 0 0 0-.536.244c.049.146.106.308.17.486.341-.178.568-.292.682-.34-.081-.065-.187-.195-.316-.39zm-.706-.267c.016.016.032.065.048.146.13-.081.26-.146.39-.195-.016-.016-.016-.024 0-.024-.098-.081-.244-.057-.438.073zm2.385 3.65c-.097.049-.414.17-.95.365a.216.216 0 0 1-.097.025c.098.243.187.462.268.657.195-.276.454-.625.779-1.047zm.949-2.166c.065.033.106.09.122.17a.231.231 0 0 1-.098.195c-1.33.763-2.036 1.16-2.117 1.193-.114.049-.187.008-.22-.122-.048-.13-.007-.219.123-.268.08-.032.738-.413 1.971-1.143-.276.016-.544-.082-.803-.292-.633.535-1.176.819-1.63.851.21.633.397 1.185.559 1.655a.146.146 0 0 1 .097-.097c.73-.276 1.193-.487 1.388-.633.048-.048.113-.057.194-.024a7.98 7.98 0 0 1 .463-.609c.21-.275.405-.527.584-.754a.884.884 0 0 1-.195-.39.483.483 0 0 1-.17.147.575.575 0 0 1-.264.12l-.004.001zm1.874-2.263l-.268.438c-.146.227-.26.422-.34.584-.244.52-.244.86 0 1.022a.39.39 0 0 1 .17.292v.122c-.016.195.292.26.925.195.324-.033.746-.179 1.265-.438.309-.146.56-.228.755-.244-.162-.243-.235-.681-.22-1.314l-.608-.122c-.227-.048-.308-.186-.243-.413.065-.228.203-.317.414-.268l.292.073a.205.205 0 0 1 .17-.025c.373.114.95 0 1.728-.34.098-.049.325-.154.682-.317.292-.146.527-.251.705-.316.13-.049.211-.008.244.122.032.13-.008.219-.122.267H79.8c.097.033.146.098.146.195v.097c0 .13-.065.195-.195.195s-.195-.065-.195-.195v-.097c0-.032.009-.065.025-.097a4.332 4.332 0 0 0-.39.194c.049 0 .09.017.122.05.097.096.097.194 0 .291.081.065.09.146.024.244-.048.097-.138.121-.267.073-.146-.065-.211-.163-.195-.293a.574.574 0 0 1 .122-.267c-.13.065-.236.113-.317.146.016.065 0 .13-.048.195-.163.194-.187.373-.073.535.08.114.064.203-.05.268-.129.065-.226.04-.291-.073-.13-.195-.154-.422-.073-.682-.325.13-.617.211-.876.244 0 .762.048 1.208.146 1.338.13.179.097.333-.098.463.163.097.276.154.341.17l.682-.511c-.033.016 0-.016.097-.098.016 0 .04.009.073.025.714-.6 1.533-.747 2.458-.438.178.048.3 0 .365-.146.065-.13.097-.325.097-.584.017-.633-.056-1.063-.219-1.29-.13-.195-.454-.47-.973-.828-.6-.405-1.055-.608-1.363-.608-.292 0-.892.121-1.801.365-.162.032-.39.08-.682.146-.308.065-.535.113-.681.146-.454.13-.933.633-1.436 1.509zm6.62 2.044c-.373.065-.844.22-1.412.463-.697.308-1.16.495-1.387.56.049.145.097.3.146.462.73-.016 1.793-.398 3.188-1.144.098-.065.179-.049.244.049a15.8 15.8 0 0 0-.073-.536.187.187 0 0 1-.073.025c-.146.097-.325.121-.536.073-.016.032-.048.048-.097.048zm-.9-.17c-.422.016-.804.178-1.144.487.616-.276.997-.438 1.143-.487zm2.433 4.843l-.681-3.918a.187.187 0 0 0-.025-.073v-.098a.275.275 0 0 1-.097.098c-1.428.778-2.531 1.176-3.31 1.192.049.26.098.536.146.828a11.102 11.102 0 0 0 2.58-1.095c.114-.065.203-.041.268.073.065.113.04.202-.073.267-.876.52-1.785.9-2.726 1.144l.049.73c.016.146.04.333.073.56.357-.097 1.29-.568 2.798-1.412.114-.064.203-.04.268.073.065.13.04.22-.073.268-1.558.876-2.54 1.363-2.945 1.46.033.39.09.86.17 1.412.422.016 1.16-.26 2.215-.827a44.183 44.183 0 0 1 1.363-.682zm-9.316-6.071c.045-.085.221-.397.53-.938.584-1.022 1.095-1.615 1.534-1.777-.114.049.357-.065 1.411-.34 1.168-.293 1.769-.439 1.801-.439.844-.097 1.793.292 2.848 1.169.714.584 1.006 1.411.876 2.482a2.201 2.201 0 0 1-.097.511c.113-.032.154-.04.121-.024l.049-.025c0 .05.008.082.024.098.033.178.073.438.122.779l.146.754c.39 2.385.649 3.845.779 4.38.243 1.007.519 2.54.827 4.6.325 2.045.609 3.578.852 4.6.049.276-.081.406-.39.39-.405.292-1.119.6-2.141.925-.99.292-1.696.608-2.117.95-.163.145-.317.129-.463-.05a.306.306 0 0 1-.243-.048c-.552-.276-1.339-.52-2.361-.73a20.932 20.932 0 0 1-1.412-.292c.114.21.057.316-.17.316-1.055-.016-1.704.04-1.947.17-.114.049-.203.017-.268-.097s-.04-.195.073-.243c.357-.195.998-.276 1.923-.244a3.76 3.76 0 0 1-.633-.195c-.113-.032-.186-.097-.219-.194a.54.54 0 0 1-.024-.17c.032-.52.024-1.104-.025-1.753-.21.016-1.103.398-2.677 1.144-.21.114-.365.065-.462-.146a.472.472 0 0 1-.22-.22c-.08-.129-.097-.161-.048-.096a.264.264 0 0 1-.049-.098c-.243.227-.43.195-.56-.097-.21-.438-.437-1.022-.68-1.753a.326.326 0 0 1-.074.268c-.162.162-.527.422-1.095.779-.373.243-.673.43-.9.56a.501.501 0 0 1-.244.194.365.365 0 0 1-.073.341c-.113.081-.227.098-.34.049-.504-.227-1.201-.487-2.094-.779a29.146 29.146 0 0 1-2.093-.779c-.26-.097-.292-.276-.097-.535v-1.704c.113-2.255.178-3.407.195-3.456.08-.681.227-1.541.438-2.58.26-1.46.422-2.32.486-2.58.179-1.119.333-1.914.463-2.385.049-.194.09-.389.122-.584-.195-.26-.293-.657-.293-1.192-.762-.795-.21-1.639 1.655-2.531.747-.357 1.315-.56 1.704-.609.65-.081 1.663.049 3.042.39 1.055.26 1.72.64 1.996 1.143.26.439.414 1.169.462 2.19.026.282.037.448.032.497l-.002.004zm9.973 11.523c.114-.065.203-.04.268.073.065.113.049.203-.049.268-1.8 1.038-2.969 1.508-3.504 1.411-.114-.032-.154-.113-.122-.243.033-.13.114-.179.243-.146.374.08.958-.098 1.753-.536a7.63 7.63 0 0 0 .706-.413l.705-.414zM68.75 13.268c.146.163.138.325-.024.487-.162.162-.325.162-.487 0-.34-.357-.43-.73-.267-1.12.08-.227.219-.308.413-.243.26.065.341.203.244.414-.065.162-.025.316.121.462zm8.689 1.315c.065-.114.154-.138.268-.073.113.064.138.154.073.267a.31.31 0 0 0 0 .292c.065.114.04.203-.073.268-.114.065-.203.04-.268-.073a.645.645 0 0 1 0-.681zM63.542 29.867c.114-.033.195.008.243.122.033.13-.016.219-.146.267a5.632 5.632 0 0 1-1.217.317c-.13 0-.194-.065-.194-.195s.065-.203.194-.22c.325-.032.698-.129 1.12-.291zm2.653 1.192c.113.05.154.13.122.244-.033.13-.106.17-.22.121-.746-.275-1.646-.016-2.701.78-.097.08-.178.064-.243-.05-.065-.13-.05-.227.048-.291 1.136-.877 2.134-1.144 2.994-.804zm4.016 1.947c.13.05.178.13.146.244-.049.13-.13.178-.244.146-.113-.033-1.273-.033-3.48 0-.13 0-.195-.065-.195-.195s.065-.195.195-.195c2.239-.048 3.432-.048 3.578 0zm2.068-1.557c.114.032.154.113.122.243s-.114.179-.243.146c-1.023-.357-1.98-.268-2.872.268-.114.065-.203.04-.268-.073-.065-.114-.04-.203.073-.268.99-.6 2.053-.706 3.188-.316zm4.357 1.46c.13 0 .195.065.195.195s-.065.194-.195.194c-.487 0-1.103.106-1.85.317-.925.276-1.533.43-1.825.462-.13.017-.211-.04-.244-.17-.032-.114.017-.187.146-.22.293-.032.917-.186 1.874-.462.763-.21 1.396-.316 1.899-.316zm1.947.22c.113-.066.203-.041.268.072.064.114.04.203-.073.268-.098.065-.26.146-.487.243l-.487.244c-.114.065-.203.04-.268-.073-.065-.114-.04-.203.073-.268l.487-.244c.211-.097.373-.178.487-.243zm14.505-11.634c.13-.033.211.016.244.146.032.113-.008.186-.122.219.049 0-.422.21-1.412.632-.438.195-.746.22-.924.073-.098-.08-.106-.162-.025-.243.098-.097.195-.105.292-.024.065.032.398-.098.998-.39.47-.243.787-.381.95-.413zm4.698.194c.048-.551.048-1.322 0-2.312h-.122c-.941-.081-1.363-.13-1.266-.146.065 0-.26.227-.973.682-.487.308-.925.308-1.314 0 0 .162-.009.332-.025.51-.049.877-.04 2.102.025 3.676.064 1.509.04 4.6-.074 9.272.13-.032.236 0 .317.098 0-.016.016-.033.049-.049.146-.065.292-.17.438-.316a8.17 8.17 0 0 0 .462-.414c.162-.162.39-.406.682-.73l1.606-1.68v-.048c-.179-2.06-.114-4.908.195-8.543zm-4.407 11.077l.001-.003v.003zm-2.238-1.682c.13.146.284.3.463.462h.048c.6-.081 1.063-.219 1.388-.414.113-.064.202-.04.267.073.065.114.049.203-.048.268-.325.195-.747.333-1.266.414.325.276.617.511.876.706.081 0 .163-.049.244-.146.08-.081.17-.081.267 0 .049-2.402.073-4.414.073-6.036-1.914.616-2.766.925-2.555.925h-.049v.097c-.016.47-.032.836-.048 1.095.227-.016.973-.357 2.239-1.022.113-.065.202-.04.267.073.081.114.065.203-.048.268-1.33.697-2.15 1.063-2.458 1.095h-.025c0 .243.008.446.025.608 1.2-.47 1.93-.73 2.19-.778.13-.033.21.016.243.146s-.016.202-.146.219c-.227.048-.973.324-2.239.827a.754.754 0 0 0 .049.146c.113.195.073.35-.122.463.049.08.106.162.17.243.05-.114.122-.154.22-.122.243.033.624-.08 1.143-.34.374-.211.593-.341.658-.39a.222.222 0 0 1 .17-.146c.081 0 .146.033.195.098.097.178-.163.421-.78.73-.6.324-1.07.47-1.41.438zm-.876-12.753c.065.032.09.048.073.048l.049.341c.113.746.219 1.614.316 2.604.227-.08 1.006-.414 2.337-.998.13-.048.227-.016.292.098.065.113.04.194-.073.243-1.428.617-2.272.974-2.531 1.07l.097 1.047c.016.195.032.422.049.682 1.022-.422 1.655-.657 1.898-.706.13-.016.21.04.243.17s-.016.203-.146.22c-.178.032-.843.275-1.995.73.016.39.024.82.024 1.29a.165.165 0 0 1 .122-.05c.486 0 1.273-.275 2.36-.827.017-.016.033-.024.049-.024 0-.21-.008-.406-.024-.584-.049-1.736-.049-3.018 0-3.845.032-.292.056-.544.073-.755-1.266.536-2.158.828-2.677.876-.13 0-.195-.065-.195-.194 0-.13.065-.203.195-.22a3.998 3.998 0 0 0 1.192-.267c-.21-.114-.43-.398-.657-.852-.097-.21-.252-.292-.462-.243-.439.097-.641.146-.609.146zm3.359.754c-.016 0 .008.008.073.024v-.121l-.195.097h.122zm-2.75 6.377c0 .454-.009.949-.025 1.484h.049c.373-.016.803-.146 1.29-.39.665-.324 1.087-.51 1.265-.559 0-.47-.008-.9-.024-1.29-1.055.536-1.858.803-2.41.803a.262.262 0 0 1-.145-.048zm-.317-10.393a6.357 6.357 0 0 1-.535.463c-.179.194-.211.405-.098.633.05.097.04.202-.024.316.114.146.106.284-.024.414-.114.097-.154.21-.122.34a.458.458 0 0 0 .22.317c.145.08.348.073.607-.025.357-.13.658-.121.901.025.032 0 .26.324.681.973.098.13.22.138.366.025.032-.049.089-.114.17-.195l.17-.17c.357-.26.706-.292 1.047-.098.324.211.487.528.487.95 0 .324.13.446.389.365.178-.05.381-.179.608-.39.325-.308.658-.47.998-.487.163 0 .373.025.633.073.308.049.52.073.633.073.243.017.422-.089.535-.316.098-.195.098-.414 0-.657-.276-.811-.397-1.323-.365-1.533.162-.925.154-1.501-.024-1.728-.146-.179-.373-.284-.682-.317-.357-.016-.6-.073-.73-.17a3.16 3.16 0 0 1-.292-.268 1.03 1.03 0 0 0-.267-.268c-.374-.21-.682-.348-.925-.413-1.444-.438-2.564-.163-3.359.827-.065.065-.227.276-.487.633a3.658 3.658 0 0 1-.51.608zm8.007.998c0 .049.114.568.341 1.558.162.616.016 1.12-.438 1.509.081.892.065 1.995-.049 3.31-.276 2.904-.316 5.5-.121 7.788v.073c.097.178.048.324-.146.438-.098.065-.382.357-.852.876-.763.795-1.217 1.274-1.363 1.436-1.12 1.087-1.817 1.395-2.093.925a.416.416 0 0 1-.34 0c-.13-.097-.196-.203-.196-.316v-.025c-.568-.227-1.225-.681-1.971-1.363-.795-.73-1.257-1.363-1.387-1.898-.033-.179.032-.308.194-.39a6.71 6.71 0 0 1-.073-.827c0-.21.025-.73.073-1.558.082-2.109.082-3.715 0-4.819a60.932 60.932 0 0 0-.486-4.332 8.563 8.563 0 0 1-.049-.34 1.108 1.108 0 0 1-.535-.755c-.082-.34-.009-.633.219-.876-.26-.584-.057-1.168.608-1.752.195-.163.438-.455.73-.877.308-.405.552-.697.73-.876.65-.568 1.46-.852 2.434-.852.941 0 1.777.26 2.507.78l.754.535c.292-.049.511-.033.658.048.421.244.705.528.851.852.163.438.163 1.014 0 1.728zm-6.936 0a1.023 1.023 0 0 1-.535-.34c-.146-.179-.138-.35.024-.512.162-.162.316-.162.462 0 .13.163.487.236 1.071.22.536 0 .909.04 1.12.121.048.016.089.049.121.097.195-.048.447-.154.755-.316.34-.162.592-.268.754-.316.228-.049.374.04.439.267.048.228-.033.365-.244.414-.13.033-.268.081-.414.146.082.033.122.098.122.195v.608c0 .146-.065.22-.195.22s-.194-.074-.194-.22v-.705c-.292.146-.479.235-.56.267.081.227.138.479.17.755.016.13-.048.194-.194.194-.114 0-.179-.064-.195-.194a3.054 3.054 0 0 0-.17-.633.46.46 0 0 0-.147.024c.017.26.05.503.098.73.032.228-.057.374-.268.438-.227.05-.365-.032-.414-.243a9.455 9.455 0 0 1-.121-1.144h-.317c.033.049.033.114 0 .195a.425.425 0 0 0 0 .438c.049.114.016.203-.097.268-.114.065-.203.04-.268-.073a.836.836 0 0 1 0-.828h-.414v.511c0 .146-.064.22-.194.22-.146 0-.22-.074-.22-.22v-.51c0-.017.009-.041.025-.074zm4.21.365a.7.7 0 0 1 .122-.535c.081-.098.179-.114.292-.049.13.065.154.154.073.268a.391.391 0 0 0-.097.316c.016.13-.049.195-.195.195-.113 0-.178-.065-.194-.195zm-7.374 15.236c-.081.097-.17.097-.268 0-.08-.081-.08-.179 0-.292.179-.211.422-.365.73-.463.114-.048.195-.008.244.122.032.13-.016.211-.146.243-.211.082-.398.211-.56.39zm0 1.29c-.081.08-.17.073-.268-.025-.097-.097-.097-.186 0-.267a1.374 1.374 0 0 1 1.096-.39c.13.017.194.09.194.22s-.065.194-.194.194c-.325-.032-.6.057-.828.268zm1.217.949c.114-.033.195.016.243.146.033.13-.016.203-.146.219-.568.097-1.006.3-1.314.608-.081.082-.17.073-.268-.024-.097-.081-.097-.17 0-.268.357-.357.852-.584 1.485-.681zm2.19.535c.114-.048.203-.016.268.098.065.113.04.203-.073.267-.276.13-.503.317-.681.56-.065.098-.154.114-.268.049-.114-.065-.138-.146-.073-.243a2.54 2.54 0 0 1 .827-.73zm-.803-1.411c.114-.033.195.016.244.146.032.13-.017.21-.146.243a4.858 4.858 0 0 0-.804.317c-.113.048-.202.016-.267-.098-.065-.113-.04-.203.073-.268.292-.146.592-.26.9-.34zm2.896 1.655c.098-.065.195-.057.293.024.097.097.097.187 0 .268-.39.324-.585.6-.585.827 0 .13-.064.195-.194.195s-.203-.065-.22-.195c0-.357.236-.73.706-1.12zm2.897-2.458c.08-.082.17-.073.267.024.098.081.106.17.025.268-.438.438-.682.705-.73.803-.05.13-.13.162-.244.097-.113-.081-.146-.178-.097-.292.065-.13.324-.43.779-.9zm1.24-.268c.082-.114.18-.138.293-.073.114.065.138.154.073.268a.832.832 0 0 1-.657.413c-.146.017-.227-.032-.244-.146-.048-.146-.008-.227.122-.243.211-.016.349-.09.414-.22z"/>
  </g>
</svg>
